<?xml version="1.0" standalone="no"?>
<!DOCTYPE svg PUBLIC "-//W3C//DTD SVG 20010904//EN"
 "http://www.w3.org/TR/2001/REC-SVG-20010904/DTD/svg10.dtd">
<svg version="1.0" xmlns="http://www.w3.org/2000/svg"
 width="800.000000pt" height="800.000000pt" viewBox="0 0 800.000000 800.000000"
 preserveAspectRatio="xMidYMid meet">
<metadata>
Created by potrace 1.14, written by Peter Selinger 2001-2017
</metadata>
<g transform="translate(0.000000,800.000000) scale(0.100000,-0.100000)"
fill="#000000" stroke="none">
<path d="M7175 7415 c-16 -13 -41 -32 -54 -42 -13 -10 -38 -30 -56 -45 -18
-16 -36 -28 -39 -28 -6 0 -19 -9 -49 -36 -7 -7 -71 -56 -143 -110 -71 -54
-130 -101 -132 -106 -2 -4 -10 -8 -17 -8 -7 0 -15 -4 -17 -8 -3 -7 -106 -90
-172 -137 -15 -11 -36 -27 -46 -36 -10 -8 -31 -24 -45 -35 -31 -22 -223 -169
-245 -187 -9 -6 -69 -52 -135 -102 -66 -49 -122 -92 -125 -95 -3 -3 -34 -28
-70 -55 -35 -28 -69 -54 -75 -58 -5 -4 -46 -35 -90 -68 -123 -93 -136 -103
-148 -114 -7 -6 -48 -37 -92 -70 -44 -33 -85 -64 -92 -70 -7 -5 -18 -15 -25
-21 -7 -6 -47 -36 -88 -67 -88 -65 -450 -342 -465 -354 -5 -5 -48 -38 -95 -73
-47 -35 -87 -67 -90 -70 -3 -3 -21 -17 -42 -32 -20 -15 -43 -35 -52 -44 -9 -8
-16 -13 -16 -10 0 3 -8 -1 -17 -8 -61 -50 -103 -83 -123 -96 -12 -8 -32 -23
-43 -33 -12 -10 -35 -28 -50 -40 -16 -12 -41 -31 -55 -43 -15 -11 -83 -63
-152 -115 -69 -51 -127 -96 -130 -99 -3 -3 -32 -25 -65 -50 -33 -25 -99 -76
-147 -113 l-87 -68 1 -774 0 -775 36 28 c21 15 39 29 42 32 3 3 48 37 100 77
118 88 138 104 159 123 10 8 39 31 67 49 27 19 51 38 54 41 3 4 32 26 65 51
33 24 71 54 85 67 14 12 28 22 32 22 4 0 18 11 32 25 14 14 27 25 30 25 3 0
43 29 88 65 46 36 88 68 93 73 6 4 28 20 50 36 22 17 42 32 45 35 3 4 32 26
65 51 33 25 65 50 71 55 7 6 24 19 39 30 71 51 221 169 227 179 4 6 8 7 8 3 0
-5 6 -2 13 5 8 7 29 24 47 38 18 14 57 44 86 68 29 23 57 42 62 42 6 0 12 4
14 9 2 5 33 31 70 59 38 28 74 56 80 62 7 6 40 31 73 56 33 25 74 56 90 69 17
13 57 44 90 69 33 25 65 49 70 54 6 4 26 19 45 32 19 14 37 28 40 31 6 7 98
77 136 104 15 11 42 32 59 46 16 14 68 54 115 89 47 35 87 68 88 72 2 4 10 8
17 8 7 0 15 4 17 8 2 4 32 30 68 57 71 54 75 57 107 83 12 10 34 27 48 38 28
20 89 66 115 87 9 7 33 25 55 41 22 17 42 32 45 36 3 3 49 39 104 80 54 41
131 100 171 130 39 30 89 69 111 85 68 52 68 52 51 88 -65 140 -103 221 -128
272 -31 64 -35 85 -18 85 9 0 71 46 115 85 6 6 22 17 34 25 12 8 30 22 40 31
10 8 31 24 46 35 15 10 37 28 50 39 l23 20 -21 45 c-12 25 -48 101 -80 170
-32 69 -62 132 -67 140 -7 12 14 33 95 94 57 43 113 86 124 95 11 9 40 32 65
51 25 19 45 40 45 46 0 5 -9 28 -19 50 -24 50 -97 204 -127 272 -14 28 -28 52
-32 52 -4 0 -20 -11 -37 -25z"/>
<path d="M3659 7007 c-67 -45 -63 14 -64 -1027 0 -520 1 -951 4 -959 4 -12 6
-12 15 0 6 8 19 19 28 24 22 14 220 166 236 182 7 7 17 13 21 13 5 0 22 14 39
30 18 17 34 30 37 30 4 0 170 127 220 168 11 10 45 35 75 57 30 21 57 42 60
45 3 4 32 26 65 51 33 24 65 49 71 54 7 6 24 19 39 30 16 11 71 54 124 95 54
41 108 82 121 91 l23 15 0 511 c0 488 -1 512 -19 544 -40 70 -33 69 -575 69
l-486 0 -34 -23z"/>
<path d="M4670 3634 c-52 -41 -106 -83 -118 -94 -13 -11 -26 -20 -29 -20 -2 0
-10 -6 -18 -12 -21 -21 -51 -45 -67 -54 -9 -5 -31 -21 -49 -36 -76 -60 -203
-158 -309 -238 -127 -96 -228 -174 -250 -192 -8 -7 -18 -12 -22 -11 -5 2 -8
-1 -8 -5 0 -8 -118 -102 -171 -135 -16 -11 -29 -23 -29 -28 0 -5 -6 -9 -14 -9
-8 0 -20 -17 -26 -37 -18 -56 -63 -158 -72 -161 -4 -2 -8 -8 -8 -12 0 -19 -65
-105 -124 -164 -72 -71 -95 -90 -144 -118 -126 -70 -173 -86 -302 -107 -48 -7
-178 -6 -220 3 -14 3 -36 8 -49 11 -41 8 -125 37 -135 46 -6 5 -18 9 -28 9
-10 0 -18 5 -18 10 0 6 -9 10 -19 10 -11 0 -21 3 -23 8 -1 4 -21 19 -43 33
-191 124 -321 345 -341 579 -3 30 -7 66 -9 80 -2 14 -4 30 -4 37 -1 17 -49 63
-77 73 -14 6 -241 10 -510 10 -536 0 -517 2 -560 -64 -18 -27 -21 -44 -19
-121 3 -104 13 -193 30 -275 3 -14 8 -41 11 -60 3 -19 10 -42 14 -50 4 -8 9
-19 9 -25 9 -58 97 -285 131 -335 9 -14 23 -40 31 -57 8 -18 17 -33 21 -33 5
0 8 -5 8 -10 0 -9 74 -124 90 -140 3 -3 20 -25 39 -50 19 -25 51 -62 70 -83
56 -60 131 -135 131 -131 0 2 12 -9 28 -24 15 -15 50 -46 77 -67 28 -22 51
-43 53 -47 2 -5 8 -8 13 -8 11 0 72 -42 77 -52 2 -5 10 -8 18 -8 8 0 14 -3 14
-7 0 -5 10 -13 23 -19 12 -6 56 -30 97 -52 159 -86 403 -175 545 -198 17 -3
46 -9 65 -14 19 -4 42 -8 50 -8 8 0 35 -4 60 -8 54 -9 453 -11 495 -2 17 4 54
10 82 13 29 3 66 10 83 15 16 5 30 7 30 5 0 -3 11 0 25 5 14 5 37 12 52 15
100 18 359 118 466 181 32 19 60 34 63 34 6 0 187 121 194 129 3 4 28 24 55
46 84 65 272 262 325 341 84 123 174 274 164 274 -2 0 2 10 10 23 21 31 85
199 106 277 28 102 47 208 57 315 6 71 8 864 2 869 -2 2 -47 -30 -99 -70z"/>
</g>
</svg>
